<svg xmlns="http://www.w3.org/2000/svg" xmlns:xlink="http://www.w3.org/1999/xlink" width="18" height="20" viewBox="0 0 18 20">
    <defs>
        <path id="a" d="M0 0h22v22H0z"/>
    </defs>
    <g fill="none" fill-rule="evenodd" transform="translate(-2 -1)">
        <mask id="b" fill="#fff">
            <use xlink:href="#a"/>
        </mask>
        <path fill="#A3A1A1" d="M19.975 5.403a4.384 4.384 0 0 0-1.604-2.966l-.562-.457a4.391 4.391 0 0 0-6.18.654L2.978 13.36a4.39 4.39 0 0 0-.954 3.236 4.387 4.387 0 0 0 1.606 2.966l.563.457a4.39 4.39 0 0 0 6.163-.635l5.834-7.233a2.673 2.673 0 0 0 .579-1.969 2.668 2.668 0 0 0-.975-1.804l-.296-.24a2.673 2.673 0 0 0-3.759.399L5.916 15.76a.782.782 0 0 0 .115 1.095c.32.26.83.206 1.091-.116l5.825-7.223a1.116 1.116 0 0 1 1.576-.166l.295.239c.232.188.377.457.41.756.03.3-.055.593-.244.826l-5.818 7.215a2.84 2.84 0 0 1-3.997.422l-.562-.457c-.59-.479-.96-1.16-1.038-1.918-.08-.758.139-1.502.617-2.093l8.649-10.727a2.84 2.84 0 0 1 3.997-.424l.564.458a2.863 2.863 0 0 1 .42 4.011.774.774 0 0 0-.168.572.774.774 0 0 0 .284.524.794.794 0 0 0 1.091-.116 4.391 4.391 0 0 0 .952-3.236" mask="url(#b)"/>
    </g>
</svg>
